<?xml version="1.0" encoding="UTF-8" standalone="no"?>
<svg
   xmlns:dc="http://purl.org/dc/elements/1.1/"
   xmlns:cc="http://creativecommons.org/ns#"
   xmlns:rdf="http://www.w3.org/1999/02/22-rdf-syntax-ns#"
   xmlns:svg="http://www.w3.org/2000/svg"
   xmlns="http://www.w3.org/2000/svg"
   xmlns:sodipodi="http://sodipodi.sourceforge.net/DTD/sodipodi-0.dtd"
   xmlns:inkscape="http://www.inkscape.org/namespaces/inkscape"
   version="1.0"
   width="2052.000000pt"
   height="1745.000000pt"
   viewBox="0 0 2052.000000 1745.000000"
   preserveAspectRatio="xMidYMid meet"
   id="svg2"
   inkscape:version="0.91 r13725"
   sodipodi:docname="logo_svg.svg">
  <defs
     id="defs12" />
  <sodipodi:namedview
     pagecolor="#ffffff"
     bordercolor="#666666"
     borderopacity="1"
     objecttolerance="10"
     gridtolerance="10"
     guidetolerance="10"
     inkscape:pageopacity="0"
     inkscape:pageshadow="2"
     inkscape:window-width="1311"
     inkscape:window-height="744"
     id="namedview10"
     showgrid="false"
     inkscape:zoom="0.10487329"
     inkscape:cx="1282.4999"
     inkscape:cy="1090.625"
     inkscape:window-x="55"
     inkscape:window-y="24"
     inkscape:window-maximized="1"
     inkscape:current-layer="svg2" />
  <metadata
     id="metadata4">
Created by potrace 1.14, written by Peter Selinger 2001-2017
<rdf:RDF>
  <cc:Work
     rdf:about="">
    <dc:format>image/svg+xml</dc:format>
    <dc:type
       rdf:resource="http://purl.org/dc/dcmitype/StillImage" />
  </cc:Work>
</rdf:RDF>
</metadata>
  <g
     transform="translate(0.000000,1745.000000) scale(0.100000,-0.100000)"
     fill="#000000"
     stroke="none"
     id="g6"
     style="opacity:0.3946002;fill:#ffffff">
    <path
       d="M7310 17439 c-1262 -85 -2339 -579 -3251 -1492 -885 -885 -1368 -1911 -1481 -3142 -14 -154 -17 -655 -5 -806 l7 -97 -147 -74 c-694 -351 -1266 -867 -1706 -1539 -486 -742 -726 -1547 -727 -2441 -1 -1245 456 -2320 1362 -3203 811 -791 1746 -1204 2863 -1265 109 -6 1296 -10 3017 -10 l2837 0 11 -42 c244 -937 802 -1804 1540 -2393 953 -761 2142 -1074 3325 -874 256 43 562 129 832 234 118 46 123 49 132 83 6 19 18 44 28 56 11 13 12 16 3 9 -29 -22 -375 164 -594 319 -664 474 -1119 1200 -1256 2008 -26 155 -40 302 -40 422 0 91 2 100 18 95 9 -3 76 -26 147 -51 587 -205 1268 -256 1892 -140 997 183 1881 762 2443 1599 168 249 361 632 420 832 14 45 36 49 26 4 -5 -22 -5 -23 5 -8 8 13 8 27 0 49 -20 58 -8 118 34 168 25 29 99 354 124 545 27 203 32 302 32 618 -1 611 -29 899 -122 1272 -133 528 -391 1029 -763 1482 -120 145 -436 458 -567 562 -441 346 -892 570 -1436 712 -46 11 -81 24 -79 28 2 3 26 45 55 92 163 273 283 621 327 944 33 250 20 616 -32 875 -90 449 -310 863 -645 1214 -424 445 -893 691 -1489 783 -144 22 -542 25 -700 5 -462 -58 -870 -230 -1229 -517 -52 -41 -98 -75 -102 -75 -4 0 -12 15 -19 33 -32 79 -147 319 -207 430 -236 440 -502 801 -861 1169 -110 112 -161 171 -156 180 4 7 110 153 236 324 168 230 235 314 254 318 13 4 30 17 36 31 21 47 -48 119 -232 242 -88 58 -351 215 -355 211 -1 -2 -114 -149 -250 -328 -136 -179 -253 -331 -260 -339 -11 -11 -28 -3 -101 47 -691 464 -1470 744 -2304 827 -186 19 -702 27 -890 14z m3984 -335 c344 -206 455 -313 370 -354 -23 -11 -431 -558 -1625 -2183 -1371 -1864 -1594 -2173 -1597 -2205 -1 -20 56 -765 127 -1656 l129 -1618 -1285 -1589 c-707 -874 -1288 -1589 -1292 -1589 -3 0 -22 26 -41 57 -49 80 -181 211 -272 270 -71 47 -205 109 -215 100 -2 -2 23 -14 57 -27 133 -50 289 -168 380 -288 205 -270 242 -629 95 -927 -156 -317 -475 -515 -831 -515 -255 0 -484 96 -664 279 -245 249 -322 583 -211 908 58 167 183 337 326 439 80 57 212 119 312 146 105 28 356 31 449 5 69 -19 100 -22 41 -3 l-39 12 1181 1508 c650 829 1181 1515 1181 1524 1 31 -190 2476 -196 2510 l-5 32 -722 0 -723 0 -190 -277 c-105 -153 -379 -552 -608 -886 l-418 -608 -39 62 c-49 75 -125 157 -199 214 -57 44 -160 105 -176 105 -5 0 15 -13 44 -29 204 -113 352 -287 420 -494 79 -238 63 -458 -47 -682 -105 -213 -274 -359 -501 -436 -83 -28 -112 -33 -230 -37 -113 -3 -149 -1 -222 17 -375 89 -643 410 -665 797 -15 266 79 510 268 690 116 110 240 178 391 214 101 24 283 27 373 5 64 -15 92 -18 62 -7 -14 6 95 176 675 1046 l693 1038 895 -6 895 -7 1735 2271 c954 1248 1739 2270 1744 2270 5 0 82 -43 170 -96z"
       id="path8"
       style="fill:#ffffff" />
  </g>
</svg>
